<svg width="100" height="100" viewBox="0 0 100 100" fill="none" xmlns="http://www.w3.org/2000/svg">
<g clip-path="url(#clip0_20_17)">
<path d="M50 100C22.3844 100 0 77.6156 0 50C0 22.3844 22.3844 0 50 0C77.6156 0 100 22.3844 100 50C100 77.6156 77.6156 100 50 100ZM82.2188 57.7344C81.6719 57.4938 80.9844 57.8469 80.6875 58.5281C80.5864 58.7389 80.5394 58.9717 80.5509 59.2052C80.5623 59.4387 80.6319 59.6657 80.7531 59.8656L73.7219 72.2906C73.4648 72.2592 73.2041 72.2958 72.9656 72.3969L68.3094 67.6531C68.3984 67.2537 68.3462 66.8357 68.1616 66.4704C67.9769 66.1051 67.6713 65.8152 67.2969 65.65V35.0438C67.5848 34.9159 67.8331 34.713 68.0156 34.4562L79.4812 40.6L79.5187 40.7531C79.7281 41.4656 80.3625 41.8937 80.9344 41.7094C81.5031 41.5281 81.7969 40.8 81.5844 40.0844C81.3906 39.4312 80.8469 39.0219 80.3156 39.0938L74.7437 28.2125L74.7688 28.1812C75.175 27.5906 74.9188 26.6969 74.2063 26.1844C74.0042 26.0304 73.7695 25.925 73.5203 25.8762C73.271 25.8274 73.0139 25.8366 72.7687 25.9031L68.9688 23.3469C68.9314 23.0706 68.8315 22.8065 68.6766 22.5747C68.5217 22.3429 68.316 22.1496 68.075 22.0094C67.8563 21.8743 67.6109 21.7882 67.3558 21.7569C67.1006 21.7256 66.8417 21.7499 66.5969 21.8281L57.7656 16.7906C57.6406 16.2469 57.125 15.775 56.4406 15.6563C55.6844 15.5219 54.9844 15.85 54.7375 16.4156L35.6156 19.8906C35.4031 19.747 35.1602 19.6544 34.9059 19.6203C34.6516 19.5861 34.3929 19.6113 34.15 19.6938C33.3688 19.9406 32.8688 20.6344 32.9813 21.2938L19.6938 35.2188C19.1 35.1813 18.4969 35.6437 18.25 36.3719C18.1486 36.6373 18.1152 36.9239 18.1528 37.2055C18.1905 37.4872 18.298 37.7549 18.4656 37.9844L17.7188 55.7562C17.3219 56.0812 17.1094 56.6937 17.2156 57.3375C17.3406 58.0562 17.8156 58.6 18.3656 58.7094L23.4281 70.45C23.225 70.9875 23.4187 71.6969 23.9594 72.1844C24.1472 72.3659 24.3755 72.5002 24.6254 72.5763C24.8753 72.6523 25.1397 72.668 25.3969 72.6219L37.7031 81.5031C37.6719 82.15 38.2156 82.7781 39.0031 82.95C39.2451 83.0093 39.4972 83.0138 39.7411 82.9629C39.985 82.9121 40.2144 82.8073 40.4125 82.6562L56.3438 83.7719C56.65 84.225 57.2875 84.4688 57.9594 84.3406C58.2435 84.2981 58.5115 84.1817 58.7364 84.0028C58.9613 83.824 59.1352 83.5892 59.2406 83.3219L72.7969 75.2031C73.0454 75.2197 73.2945 75.1815 73.5267 75.0914C73.7589 75.0012 73.9684 74.8612 74.1406 74.6813C74.6031 74.2219 74.7812 73.5969 74.6406 73.0906L81.5969 60.2687C81.8365 60.231 82.062 60.1313 82.2511 59.9794C82.4403 59.8276 82.5864 59.6289 82.675 59.4031C82.9719 58.7219 82.7688 57.975 82.2219 57.7344H82.2188ZM82.2312 59.2188C82.1094 59.4906 81.8344 59.6344 81.6188 59.5375C81.3969 59.4375 81.3156 59.1406 81.4344 58.8687C81.5531 58.5969 81.8281 58.4562 82.0469 58.55C82.2656 58.6437 82.35 58.9438 82.2312 59.2188ZM73.9031 74.1937C73.6531 74.4437 73.2875 74.475 73.0906 74.2719C72.8938 74.0656 72.9406 73.6938 73.1875 73.4438C73.4406 73.1938 73.8031 73.1625 74 73.3688C74.1969 73.575 74.1531 73.9469 73.9031 74.1937ZM71.9375 73.4125L59.5187 77.7062C59.3536 77.5245 59.151 77.3805 58.925 77.2844L58.3438 68.825C58.6571 68.645 58.9079 68.3735 59.0625 68.0469H65.0563C65.3375 68.6406 65.9281 69.0469 66.6156 69.0469C66.9303 69.0472 67.2388 68.9595 67.5062 68.7937L71.975 73.3375L71.9375 73.4125ZM58.9125 82.1188C58.8169 82.0323 58.7096 81.9597 58.5938 81.9031L58.8938 80.1406C59.1311 80.0478 59.3434 79.9004 59.5133 79.7104C59.6832 79.5204 59.806 79.2931 59.8719 79.0469L69.7469 75.6312L58.9125 82.1188ZM57.8969 83.8C57.5531 83.8625 57.2313 83.6875 57.1781 83.4031C57.1281 83.1187 57.3656 82.8344 57.7094 82.775C58.0531 82.7063 58.375 82.8844 58.425 83.1688C58.475 83.4531 58.2375 83.7375 57.8937 83.8H57.8969ZM56.3219 82.5562L44.4219 81.7281L56.8531 79.7219C57.0313 79.9156 57.2594 80.0656 57.5187 80.1656L57.2344 81.8375C56.8534 81.9591 56.5293 82.2144 56.3219 82.5562ZM44.6937 69.0063C44.8856 68.9615 45.0685 68.8844 45.2344 68.7781L56.325 78.4031L40.65 80.9344L44.6937 69.0063ZM39.4906 80.1156L35.5625 68.3C35.617 68.22 35.666 68.1365 35.7094 68.05H42.7594C42.8906 68.3312 43.0938 68.5687 43.3469 68.7437L39.4906 80.1156ZM39.0125 82.4125C38.6688 82.3375 38.4406 82.05 38.5 81.7656C38.5594 81.4844 38.8875 81.3156 39.2281 81.3906C39.5719 81.4656 39.7969 81.7531 39.7375 82.0375C39.6812 82.3188 39.3531 82.4875 39.0125 82.4125ZM26.2406 71.75C26.2626 71.6315 26.2689 71.5107 26.2594 71.3906L32.8937 68.5C33.0802 68.6996 33.3115 68.852 33.5686 68.9443C33.8256 69.0367 34.101 69.0665 34.3719 69.0312L38.1312 80.3312L26.2406 71.75ZM25.1281 69.8812L22.1812 55.3563L32.7313 66.2625C32.5417 66.5397 32.4334 66.8645 32.4187 67.2L25.5969 70.1719C25.4549 70.0536 25.2972 69.9558 25.1281 69.8812ZM25.0562 71.7844C24.8687 72.0031 24.5031 71.9844 24.2437 71.75C23.9781 71.5156 23.9188 71.1469 24.1063 70.9281C24.2938 70.7094 24.6594 70.7312 24.9188 70.9656C25.1844 71.2031 25.2406 71.5719 25.0562 71.7844ZM19.4625 58.2438C19.6145 58.0221 19.7148 57.7692 19.7559 57.5036C19.797 57.238 19.7779 56.9666 19.7 56.7094L20.6594 54.6656L23.0938 66.6594L19.4625 58.2438ZM19.375 44.6813L19.875 51.5656C19.7108 51.825 19.618 52.1231 19.6059 52.4298C19.5938 52.7366 19.6629 53.041 19.8062 53.3125L18.9375 55.1562L19.375 44.6813ZM18.75 36.3969C18.8656 36.0594 19.1719 35.8656 19.4375 35.9594C19.7094 36.0531 19.8312 36.4062 19.7188 36.7406C19.6 37.0812 19.2937 37.275 19.025 37.1812C18.7594 37.0875 18.6313 36.7344 18.7469 36.3969H18.75ZM21.3875 52.5C21.3875 52.8594 21.1281 53.1469 20.8156 53.1469C20.5 53.1469 20.2406 52.8594 20.2406 52.5C20.2406 52.1437 20.5 51.8563 20.8156 51.8563C21.1281 51.8563 21.3875 52.1437 21.3875 52.5ZM20.6687 37.2312C20.7095 37.1103 20.7388 36.9858 20.7563 36.8594L26.7062 32.8187L21.1469 50.4125L20.2406 37.9438C20.4348 37.7413 20.5811 37.4978 20.6687 37.2312ZM30.125 26.0281L27.8031 29.8094C27.4343 29.8987 27.1037 30.1034 26.8594 30.3937C26.6221 30.6641 26.468 30.9972 26.4156 31.3531L22.5187 33.9969L30.125 26.0281ZM34.0438 22.2563C34.3094 22.3031 34.6063 22.2875 34.8969 22.1969C35.2882 22.0803 35.6279 21.8333 35.8594 21.4969L46.0719 23.7594C46.1174 24.0535 46.2355 24.3317 46.4156 24.5688L43.0719 31.6781C42.808 31.7344 42.5609 31.8511 42.3499 32.0193C42.139 32.1874 41.9699 32.4022 41.8563 32.6469H35.7094C35.5703 32.3494 35.3497 32.0974 35.0731 31.9204C34.7965 31.7434 34.4753 31.6485 34.1469 31.6469C33.9146 31.6466 33.6847 31.6939 33.4713 31.7858C33.258 31.8777 33.0657 32.0123 32.9062 32.1813L29.2344 31.0562C29.2566 30.8031 29.2044 30.549 29.0844 30.325L34.0438 22.2563ZM34.225 20.2156C34.5625 20.1094 34.8969 20.25 34.9781 20.5281C35.0625 20.8031 34.8563 21.1125 34.5219 21.2156C34.1906 21.3188 33.8531 21.1812 33.7687 20.9031C33.6875 20.6281 33.8937 20.3188 34.225 20.2156ZM53.75 17.8281L48.3531 21.8156C48.0067 21.6905 47.6289 21.6816 47.2771 21.7905C46.9252 21.8993 46.6184 22.1199 46.4031 22.4187L38.3375 20.6344L53.75 17.8281ZM55.6406 18.1313C55.7566 18.1777 55.877 18.2123 56 18.2344C56.5125 18.325 57 18.2031 57.3375 17.9375L65.6937 22.7L65.6594 22.8188L49.8937 22.3813L55.6406 18.1313ZM56.3844 16.1969C56.7281 16.2594 56.9688 16.5406 56.9188 16.8219C56.8688 17.1094 56.55 17.2906 56.2062 17.2281C55.8625 17.1656 55.625 16.8844 55.6719 16.6031C55.7188 16.3156 56.0375 16.1344 56.3844 16.1969ZM66.4875 24.7125L65.8875 31.8094C65.5226 31.9835 65.229 32.2782 65.0563 32.6437H58.0063C57.8385 32.2886 57.5552 32.0009 57.2026 31.8278C56.8501 31.6546 56.4492 31.6063 56.0656 31.6906L49.4281 24.0344C49.4578 23.9428 49.4787 23.8486 49.4906 23.7531L65.9406 24.2062C66.0884 24.4088 66.2742 24.5807 66.4875 24.7125ZM66.6125 32.7062C66.9969 32.7062 67.3094 33.025 67.3094 33.4156C67.3094 33.8062 66.9969 34.1219 66.6156 34.1219C66.2344 34.1219 65.9219 33.8062 65.9219 33.4156C65.9219 33.025 66.2344 32.7062 66.6156 32.7062H66.6125ZM66.9219 22.7062C67.0938 22.4062 67.5 22.3219 67.8312 22.5187C68.1625 22.7156 68.2906 23.1187 68.1188 23.4188C67.9469 23.7219 67.5375 23.8062 67.2125 23.6062C66.8781 23.4125 66.75 23.0062 66.9219 22.7062ZM79.1562 39.325L68.3438 33.2687C68.3184 32.9419 68.2026 32.6286 68.0095 32.3637C67.8163 32.0989 67.5534 31.8929 67.25 31.7688L67.8219 24.9906L79.1562 39.325ZM71.9906 26.8344C71.9281 27.3562 72.2031 27.95 72.7375 28.3281C73.0081 28.5261 73.3283 28.645 73.6625 28.6719L77.6562 35.8125L69.4469 25.125L71.9906 26.8344ZM73.1781 26.6562C73.3406 26.4187 73.7031 26.3937 73.9906 26.5969C74.2781 26.8 74.3781 27.1594 74.2156 27.3969C74.0531 27.6344 73.6875 27.6594 73.4031 27.4563C73.1156 27.25 73.0156 26.8937 73.1812 26.6562H73.1781ZM55.7719 33.4156C55.7719 33.0312 56.0687 32.7219 56.4469 32.7219C56.8219 32.7219 57.125 33.0344 57.125 33.4156C57.1258 33.5969 57.0551 33.7712 56.9281 33.9005C56.8011 34.0298 56.6281 34.1038 56.4469 34.1062C56.3569 34.1058 56.2679 34.0876 56.185 34.0526C56.102 34.0176 56.0269 33.9665 55.9638 33.9023C55.9008 33.8381 55.8511 33.762 55.8176 33.6785C55.7841 33.595 55.7675 33.5056 55.7688 33.4156H55.7719ZM56.1437 48.3312C56.5281 48.3312 56.8344 48.6469 56.8344 49.0375C56.8356 49.1294 56.8187 49.2207 56.7847 49.3061C56.7507 49.3915 56.7001 49.4694 56.636 49.5352C56.5719 49.6011 56.4954 49.6537 56.4109 49.69C56.3265 49.7263 56.2357 49.7457 56.1437 49.7469C56.0516 49.7461 55.9604 49.727 55.8756 49.6909C55.7908 49.6548 55.7139 49.6022 55.6495 49.5363C55.585 49.4704 55.5342 49.3924 55.5 49.3068C55.4657 49.2212 55.4488 49.1297 55.45 49.0375C55.45 48.6469 55.7625 48.3312 56.1437 48.3312ZM47.0906 23.2563C47.0906 22.8656 47.4 22.5469 47.7812 22.5469C48.1656 22.5469 48.475 22.8656 48.475 23.2563C48.475 23.6469 48.1625 23.9625 47.7812 23.9625C47.5961 23.96 47.4195 23.8843 47.2901 23.752C47.1607 23.6196 47.089 23.4414 47.0906 23.2563ZM47.5969 25.2469C47.9174 25.2809 48.241 25.2246 48.5312 25.0844L54.9656 32.5C54.8338 32.7157 54.7498 32.9572 54.7192 33.2081C54.6886 33.459 54.7122 33.7136 54.7883 33.9546C54.8644 34.1957 54.9913 34.4176 55.1604 34.6055C55.3296 34.7934 55.537 34.9428 55.7688 35.0438V47.3125C55.6661 47.3347 55.5657 47.3661 55.4688 47.4062L44.9062 34.3125C45.1246 33.9325 45.1965 33.4857 45.1084 33.0564C45.0204 32.627 44.7784 32.2447 44.4281 31.9813L47.5969 25.2469ZM42.7219 33.4156C42.7219 33.025 43.0344 32.7062 43.4156 32.7062C43.7938 32.7062 44.1063 33.025 44.1063 33.4156C44.1063 33.8062 43.7938 34.1219 43.4156 34.1219C43.3237 34.1211 43.2328 34.1021 43.1482 34.0662C43.0636 34.0303 42.9869 33.978 42.9225 33.9124C42.8581 33.8469 42.8072 33.7692 42.7728 33.684C42.7383 33.5987 42.7211 33.5075 42.7219 33.4156ZM33.4719 33.4156C33.4719 33.0312 33.7719 32.7219 34.1469 32.7219C34.5219 32.7219 34.825 33.0344 34.825 33.4156C34.825 33.7969 34.5219 34.1062 34.1469 34.1062C33.7719 34.1062 33.4719 33.7969 33.4719 33.4156ZM34.1469 66.5719C34.5312 66.5719 34.8406 66.8844 34.8406 67.2781C34.8419 67.3702 34.8249 67.4615 34.7906 67.547C34.7563 67.6324 34.7055 67.7102 34.641 67.7758C34.5765 67.8415 34.4996 67.8938 34.4148 67.9295C34.33 67.9653 34.2389 67.984 34.1469 67.9844C34.0554 67.9831 33.965 67.9639 33.8809 67.9278C33.7968 67.8916 33.7207 67.8392 33.6568 67.7737C33.593 67.7081 33.5427 67.6306 33.5088 67.5455C33.4749 67.4605 33.4581 67.3696 33.4594 67.2781C33.4594 66.8875 33.7656 66.5719 34.1469 66.5719ZM27.2844 30.7594C27.5187 30.4906 27.8781 30.4281 28.0875 30.6219C28.3 30.8094 28.2844 31.1844 28.0562 31.45C27.8219 31.7219 27.4625 31.7812 27.25 31.5906C27.0375 31.4 27.0562 31.0281 27.2812 30.7594H27.2844ZM22.2062 51.5688L28.2062 32.5781C28.349 32.5053 28.4814 32.4139 28.6 32.3063L32.4187 33.4781C32.4282 33.812 32.5322 34.1363 32.7186 34.4134C32.905 34.6905 33.1662 34.9091 33.4719 35.0438V65.0531L22.2156 53.4219C22.3861 53.1448 22.4749 52.8253 22.4719 52.5C22.4735 52.1707 22.3814 51.8477 22.2062 51.5688ZM57.5 65.5062C57.349 65.5087 57.199 65.5297 57.0531 65.5687L46.1656 52.0375C46.2686 51.7728 46.3056 51.4869 46.2734 51.2047C46.2412 50.9225 46.1407 50.6523 45.9808 50.4176C45.8208 50.1828 45.6061 49.9906 45.3552 49.8574C45.1042 49.7242 44.8247 49.6541 44.5406 49.6531C44.3105 49.6556 44.0832 49.7034 43.8716 49.7938C43.66 49.8842 43.4683 50.0154 43.3075 50.18C43.1467 50.3446 43.02 50.5393 42.9345 50.7529C42.849 50.9665 42.8065 51.1949 42.8094 51.425C42.8089 51.7264 42.885 52.0229 43.0303 52.2869C43.1757 52.5509 43.3857 52.7736 43.6406 52.9344V65.65C43.4226 65.7462 43.2264 65.8854 43.0637 66.0594C42.9009 66.2334 42.7751 66.4386 42.6937 66.6625H35.7719C35.6902 66.4388 35.5643 66.2338 35.4016 66.0598C35.2389 65.8858 35.0428 65.7465 34.825 65.65V35.0438C35.043 34.9476 35.2392 34.8083 35.402 34.6343C35.5647 34.4603 35.6905 34.2552 35.7719 34.0312H41.7906C41.9337 34.4313 42.2186 34.7649 42.5912 34.9688C42.9639 35.1727 43.3985 35.2327 43.8125 35.1375L54.525 48.4125C54.4496 48.6122 54.4115 48.824 54.4125 49.0375C54.4096 49.2676 54.4521 49.496 54.5376 49.7096C54.6231 49.9232 54.7499 50.1179 54.9107 50.2825C55.0715 50.4471 55.2631 50.5783 55.4747 50.6687C55.6863 50.7591 55.9137 50.8069 56.1437 50.8094C56.374 50.8069 56.6015 50.7591 56.8132 50.6688C57.025 50.5784 57.2169 50.4472 57.3779 50.2827C57.539 50.1181 57.6661 49.9235 57.7519 49.7098C57.8377 49.4962 57.8806 49.2677 57.8781 49.0375C57.8792 48.7519 57.8117 48.4703 57.6812 48.2163C57.5506 47.9623 57.361 47.7435 57.1281 47.5781V35.0469C57.3452 34.9497 57.5405 34.8096 57.7021 34.6351C57.8638 34.4606 57.9885 34.2552 58.0688 34.0312H64.9938C65.0738 34.2554 65.1988 34.4608 65.3611 34.635C65.5234 34.8091 65.7195 34.9482 65.9375 35.0438V65.65C65.7196 65.7457 65.5235 65.8849 65.3613 66.059C65.199 66.2331 65.0739 66.4384 64.9938 66.6625H59.125C59.006 66.326 58.7861 66.0344 58.4953 65.8274C58.2045 65.6205 57.8569 65.5083 57.5 65.5062ZM58.25 78.1531C58.6344 78.1531 58.9469 78.4344 58.9469 78.7844C58.9469 79.1344 58.6344 79.4125 58.2531 79.4125C57.875 79.4125 57.5656 79.1312 57.5656 78.7875C57.5656 78.4437 57.875 78.1531 58.2531 78.1531H58.25ZM56.8094 67.2781C56.8094 66.8875 57.1188 66.5719 57.4969 66.5719C57.8844 66.5719 58.1937 66.8844 58.1937 67.2781C58.195 67.3702 58.178 67.4615 58.1437 67.547C58.1094 67.6324 58.0586 67.7102 57.9941 67.7758C57.9296 67.8415 57.8527 67.8938 57.7679 67.9295C57.6831 67.9653 57.592 67.984 57.5 67.9844C57.4082 67.9836 57.3175 67.9646 57.2331 67.9286C57.1486 67.8927 57.0721 67.8404 57.0079 67.7747C56.9438 67.7091 56.8932 67.6315 56.8591 67.5462C56.825 67.461 56.8081 67.3699 56.8094 67.2781ZM43.85 51.425C43.85 51.0312 44.1625 50.7188 44.5438 50.7188C44.925 50.7188 45.2344 51.0312 45.2344 51.425C45.2356 51.5168 45.2187 51.6079 45.1846 51.6931C45.1506 51.7784 45.1 51.856 45.0358 51.9216C44.9716 51.9872 44.8951 52.0396 44.8107 52.0755C44.7262 52.1115 44.6355 52.1304 44.5438 52.1312C44.4518 52.1304 44.361 52.1115 44.2763 52.0756C44.1917 52.0396 44.115 51.9874 44.0506 51.9218C43.9862 51.8562 43.9353 51.7786 43.9009 51.6934C43.8665 51.6081 43.8492 51.5169 43.85 51.425ZM44.3188 66.5719C44.7 66.5719 45.0094 66.8844 45.0094 67.2781C45.0106 67.3699 44.9937 67.461 44.9596 67.5462C44.9256 67.6315 44.875 67.7091 44.8108 67.7747C44.7466 67.8404 44.6701 67.8927 44.5857 67.9286C44.5012 67.9646 44.4105 67.9836 44.3188 67.9844C44.2267 67.984 44.1357 67.9653 44.0508 67.9295C43.966 67.8938 43.8892 67.8415 43.8247 67.7758C43.7602 67.7102 43.7093 67.6324 43.675 67.547C43.6408 67.4615 43.6238 67.3702 43.625 67.2781C43.625 66.8875 43.9375 66.5719 44.3188 66.5719ZM44.9937 65.65V53.1313C45.0739 53.1105 45.1523 53.0833 45.2281 53.05L55.9844 66.425C55.8418 66.6867 55.7676 66.9801 55.7688 67.2781C55.7688 68.075 56.2844 68.7469 56.9875 68.9719L57.5625 77.2344C57.4506 77.2726 57.3428 77.3218 57.2406 77.3812L46.0125 67.6406C46.0979 67.2422 46.0432 66.8266 45.8576 66.4639C45.672 66.1012 45.3669 65.8137 44.9937 65.65ZM67.3063 67.275C67.3075 67.3669 67.2906 67.4582 67.2566 67.5436C67.2225 67.629 67.172 67.7069 67.1079 67.7727C67.0437 67.8386 66.9673 67.8912 66.8828 67.9275C66.7983 67.9638 66.7076 67.9831 66.6156 67.9844C66.5236 67.984 66.4325 67.9653 66.3477 67.9295C66.2629 67.8938 66.186 67.8415 66.1215 67.7758C66.057 67.7102 66.0062 67.6324 65.9719 67.547C65.9376 67.4615 65.9206 67.3702 65.9219 67.2781C65.9219 66.8875 66.2344 66.5719 66.6156 66.5719C66.9969 66.5719 67.3094 66.8844 67.3094 67.2781L67.3063 67.275ZM18.2125 57.8344C17.9312 57.8875 17.6594 57.6406 17.6031 57.2875C17.5406 56.9344 17.7188 56.6094 18 56.5625C18.2812 56.5125 18.55 56.7594 18.6125 57.1125C18.6719 57.4625 18.4906 57.7875 18.2125 57.8344ZM80.625 39.9781C80.8531 39.9062 81.1094 40.075 81.1875 40.3625C81.275 40.6469 81.1562 40.9406 80.9313 41.0125C80.7031 41.0844 80.45 40.9125 80.3656 40.6281C80.2812 40.3438 80.3969 40.05 80.625 39.9781Z" fill="#264653"/>
</g>
<defs>
<clipPath id="clip0_20_17">
<rect width="100" height="100" fill="white"/>
</clipPath>
</defs>
</svg>
