<svg width="40" height="40" viewBox="0 0 40 40" fill="none" xmlns="http://www.w3.org/2000/svg">
<path d="M35.2032 0H1.4668C0.655476 0 0 0.655476 0 1.4668V35.2032C0 36.0145 0.655476 36.67 1.4668 36.67H35.2032C36.0145 36.67 36.67 36.0145 36.67 35.2032V1.4668C36.67 0.655476 36.0145 0 35.2032 0ZM30.9678 10.7031H28.0388C25.7423 10.7031 25.2977 11.794 25.2977 13.3983V16.9324H30.7799L30.0648 22.465H25.2977V36.67H19.5818V22.4695H14.8009V16.9324H19.5818V12.8528C19.5818 8.11782 22.4741 5.53717 26.7003 5.53717C28.7264 5.53717 30.4636 5.68843 30.9724 5.75719V10.7031H30.9678Z" fill="#264653"/>
</svg>
