<svg width="40" height="40" viewBox="0 0 40 40" fill="none" xmlns="http://www.w3.org/2000/svg">
<path d="M20.3301 15.2205C16.9634 15.2205 14.2159 17.968 14.2159 21.3347C14.2159 24.7013 16.9634 27.4488 20.3301 27.4488C23.6968 27.4488 26.4442 24.7013 26.4442 21.3347C26.4442 17.968 23.6968 15.2205 20.3301 15.2205ZM38.6679 21.3347C38.6679 18.8028 38.6909 16.2938 38.5487 13.7665C38.4065 10.831 37.7368 8.22569 35.5902 6.07908C33.439 3.92789 30.8383 3.26281 27.9028 3.12062C25.3709 2.97843 22.862 3.00136 20.3347 3.00136C17.8028 3.00136 15.2938 2.97843 12.7665 3.12062C9.83097 3.26281 7.22569 3.93248 5.07908 6.07908C2.92789 8.23027 2.26281 10.831 2.12062 13.7665C1.97843 16.2984 2.00136 18.8073 2.00136 21.3347C2.00136 23.862 1.97843 26.3755 2.12062 28.9028C2.26281 31.8383 2.93248 34.4436 5.07908 36.5902C7.23027 38.7414 9.83097 39.4065 12.7665 39.5487C15.2984 39.6909 17.8073 39.6679 20.3347 39.6679C22.8665 39.6679 25.3755 39.6909 27.9028 39.5487C30.8383 39.4065 33.4436 38.7368 35.5902 36.5902C37.7414 34.439 38.4065 31.8383 38.5487 28.9028C38.6955 26.3755 38.6679 23.8665 38.6679 21.3347ZM20.3301 30.7421C15.1241 30.7421 10.9226 26.5406 10.9226 21.3347C10.9226 16.1287 15.1241 11.9272 20.3301 11.9272C25.536 11.9272 29.7375 16.1287 29.7375 21.3347C29.7375 26.5406 25.536 30.7421 20.3301 30.7421ZM30.1228 13.739C28.9073 13.739 27.9258 12.7574 27.9258 11.5419C27.9258 10.3264 28.9073 9.34486 30.1228 9.34486C31.3383 9.34486 32.3199 10.3264 32.3199 11.5419C32.3202 11.8305 32.2637 12.1164 32.1534 12.3831C32.0431 12.6498 31.8813 12.8922 31.6772 13.0963C31.4731 13.3004 31.2307 13.4622 30.964 13.5725C30.6973 13.6828 30.4114 13.7393 30.1228 13.739Z" fill="#264653"/>
</svg>
