<svg width="38" height="38" viewBox="0 0 38 38" fill="none" xmlns="http://www.w3.org/2000/svg">
<path fill-rule="evenodd" clip-rule="evenodd" d="M0.666657 3.73009C0.666657 2.91764 0.9894 2.13847 1.56389 1.56398C2.13837 0.989495 2.91754 0.666752 3.72999 0.666752H34.2667C34.6693 0.666095 35.0681 0.744857 35.4402 0.89853C35.8124 1.0522 36.1505 1.27777 36.4354 1.56231C36.7203 1.84686 36.9462 2.18479 37.1003 2.55677C37.2543 2.92875 37.3335 3.32746 37.3333 3.73009V34.2668C37.3338 34.6695 37.2548 35.0683 37.1009 35.4405C36.9471 35.8126 36.7214 36.1508 36.4367 36.4356C36.152 36.7204 35.814 36.9463 35.4419 37.1004C35.0698 37.2545 34.671 37.3336 34.2683 37.3334H3.72999C3.32757 37.3334 2.92909 37.2541 2.55732 37.1001C2.18555 36.946 1.84778 36.7202 1.5633 36.4356C1.27882 36.151 1.05321 35.8131 0.899361 35.4412C0.745512 35.0694 0.666438 34.6708 0.666657 34.2684V3.73009ZM15.18 14.6468H20.145V17.1401C20.8617 15.7068 22.695 14.4168 25.45 14.4168C30.7317 14.4168 31.9833 17.2718 31.9833 22.5101V32.2134H26.6383V23.7034C26.6383 20.7201 25.9217 19.0368 24.1017 19.0368C21.5767 19.0368 20.5267 20.8518 20.5267 23.7034V32.2134H15.18V14.6468ZM6.01332 31.9851H11.36V14.4168H6.01332V31.9834V31.9851ZM12.125 8.68675C12.1351 9.14454 12.0536 9.59973 11.8854 10.0256C11.7172 10.4515 11.4656 10.8395 11.1454 11.1668C10.8252 11.4941 10.4428 11.7542 10.0207 11.9318C9.59867 12.1093 9.14539 12.2008 8.68749 12.2008C8.22959 12.2008 7.7763 12.1093 7.35423 11.9318C6.93216 11.7542 6.5498 11.4941 6.2296 11.1668C5.9094 10.8395 5.65781 10.4515 5.48959 10.0256C5.32137 9.59973 5.23991 9.14454 5.24999 8.68675C5.26978 7.78818 5.64063 6.93307 6.28313 6.30456C6.92563 5.67605 7.7887 5.32412 8.68749 5.32412C9.58628 5.32412 10.4493 5.67605 11.0918 6.30456C11.7343 6.93307 12.1052 7.78818 12.125 8.68675V8.68675Z" fill="#264653"/>
</svg>
