<svg width="24" height="25" viewBox="0 0 24 25" fill="none" xmlns="http://www.w3.org/2000/svg">
<path d="M21.75 3.90625H2.25C1.83516 3.90625 1.5 4.25537 1.5 4.6875V20.3125C1.5 20.7446 1.83516 21.0938 2.25 21.0938H21.75C22.1648 21.0938 22.5 20.7446 22.5 20.3125V4.6875C22.5 4.25537 22.1648 3.90625 21.75 3.90625ZM19.8563 6.56494L12.4617 12.5586C12.2789 12.7075 12.0234 12.7075 11.8406 12.5586L4.44375 6.56494C4.41587 6.54253 4.39541 6.51158 4.38526 6.47645C4.37511 6.44132 4.37576 6.40376 4.38713 6.36904C4.3985 6.33431 4.42002 6.30416 4.44867 6.28282C4.47731 6.26147 4.51165 6.24999 4.54688 6.25H19.7531C19.7883 6.24999 19.8227 6.26147 19.8513 6.28282C19.88 6.30416 19.9015 6.33431 19.9129 6.36904C19.9242 6.40376 19.9249 6.44132 19.9147 6.47645C19.9046 6.51158 19.8841 6.54253 19.8563 6.56494Z" fill="#264653"/>
</svg>
