<svg width="22" height="19" viewBox="0 0 22 19" fill="none" xmlns="http://www.w3.org/2000/svg">
<path d="M20.75 0.90625H1.25C0.835156 0.90625 0.5 1.25537 0.5 1.6875V17.3125C0.5 17.7446 0.835156 18.0938 1.25 18.0938H20.75C21.1648 18.0938 21.5 17.7446 21.5 17.3125V1.6875C21.5 1.25537 21.1648 0.90625 20.75 0.90625ZM18.8563 3.56494L11.4617 9.55859C11.2789 9.70752 11.0234 9.70752 10.8406 9.55859L3.44375 3.56494C3.41587 3.54253 3.39541 3.51158 3.38526 3.47645C3.37511 3.44132 3.37576 3.40376 3.38713 3.36904C3.3985 3.33431 3.42002 3.30416 3.44867 3.28282C3.47731 3.26147 3.51165 3.24999 3.54688 3.25H18.7531C18.7883 3.24999 18.8227 3.26147 18.8513 3.28282C18.88 3.30416 18.9015 3.33431 18.9129 3.36904C18.9242 3.40376 18.9249 3.44132 18.9147 3.47645C18.9046 3.51158 18.8841 3.54253 18.8563 3.56494Z" fill="#264653"/>
</svg>
