<svg width="37" height="37" viewBox="0 0 37 37" fill="none" xmlns="http://www.w3.org/2000/svg">
<path d="M18.3301 12.2205C14.9634 12.2205 12.2159 14.968 12.2159 18.3347C12.2159 21.7013 14.9634 24.4488 18.3301 24.4488C21.6968 24.4488 24.4442 21.7013 24.4442 18.3347C24.4442 14.968 21.6968 12.2205 18.3301 12.2205ZM36.6679 18.3347C36.6679 15.8028 36.6909 13.2938 36.5487 10.7665C36.4065 7.83097 35.7368 5.22569 33.5902 3.07908C31.439 0.92789 28.8383 0.26281 25.9028 0.12062C23.3709 -0.0215696 20.862 0.00136431 18.3347 0.00136431C15.8028 0.00136431 13.2938 -0.0215696 10.7665 0.12062C7.83097 0.26281 5.22569 0.932477 3.07908 3.07908C0.92789 5.23027 0.26281 7.83097 0.12062 10.7665C-0.0215696 13.2984 0.00136431 15.8073 0.00136431 18.3347C0.00136431 20.862 -0.0215696 23.3755 0.12062 25.9028C0.26281 28.8383 0.932477 31.4436 3.07908 33.5902C5.23027 35.7414 7.83097 36.4065 10.7665 36.5487C13.2984 36.6909 15.8073 36.6679 18.3347 36.6679C20.8665 36.6679 23.3755 36.6909 25.9028 36.5487C28.8383 36.4065 31.4436 35.7368 33.5902 33.5902C35.7414 31.439 36.4065 28.8383 36.5487 25.9028C36.6955 23.3755 36.6679 20.8665 36.6679 18.3347ZM18.3301 27.7421C13.1241 27.7421 8.92262 23.5406 8.92262 18.3347C8.92262 13.1287 13.1241 8.9272 18.3301 8.9272C23.536 8.9272 27.7375 13.1287 27.7375 18.3347C27.7375 23.5406 23.536 27.7421 18.3301 27.7421ZM28.1228 10.739C26.9073 10.739 25.9258 9.75741 25.9258 8.54192C25.9258 7.32642 26.9073 6.34486 28.1228 6.34486C29.3383 6.34486 30.3199 7.32642 30.3199 8.54192C30.3202 8.83054 30.2637 9.1164 30.1534 9.38312C30.0431 9.64985 29.8813 9.89219 29.6772 10.0963C29.4731 10.3004 29.2307 10.4622 28.964 10.5725C28.6973 10.6828 28.4114 10.7393 28.1228 10.739Z" fill="white"/>
</svg>
