<svg width="38" height="38" viewBox="0 0 38 38" fill="none" xmlns="http://www.w3.org/2000/svg">
<path fill-rule="evenodd" clip-rule="evenodd" d="M0.666626 3.73009C0.666626 2.91764 0.989369 2.13847 1.56386 1.56398C2.13834 0.989495 2.91751 0.666752 3.72996 0.666752H34.2666C34.6692 0.666095 35.068 0.744857 35.4402 0.89853C35.8123 1.0522 36.1505 1.27777 36.4354 1.56231C36.7202 1.84686 36.9462 2.18479 37.1002 2.55677C37.2543 2.92875 37.3335 3.32746 37.3333 3.73009V34.2668C37.3337 34.6695 37.2548 35.0683 37.1009 35.4405C36.947 35.8126 36.7213 36.1508 36.4366 36.4356C36.152 36.7204 35.8139 36.9463 35.4419 37.1004C35.0698 37.2545 34.671 37.3336 34.2683 37.3334H3.72996C3.32754 37.3334 2.92906 37.2541 2.55729 37.1001C2.18552 36.946 1.84774 36.7202 1.56327 36.4356C1.27879 36.151 1.05318 35.8131 0.89933 35.4412C0.745481 35.0694 0.666407 34.6708 0.666626 34.2684V3.73009ZM15.18 14.6468H20.145V17.1401C20.8616 15.7068 22.695 14.4168 25.45 14.4168C30.7316 14.4168 31.9833 17.2718 31.9833 22.5101V32.2134H26.6383V23.7034C26.6383 20.7201 25.9216 19.0368 24.1016 19.0368C21.5766 19.0368 20.5266 20.8518 20.5266 23.7034V32.2134H15.18V14.6468ZM6.01329 31.9851H11.36V14.4168H6.01329V31.9834V31.9851ZM12.125 8.68675C12.135 9.14454 12.0536 9.59973 11.8854 10.0256C11.7171 10.4515 11.4655 10.8395 11.1453 11.1668C10.8251 11.4941 10.4428 11.7542 10.0207 11.9318C9.59864 12.1093 9.14536 12.2008 8.68746 12.2008C8.22956 12.2008 7.77627 12.1093 7.3542 11.9318C6.93213 11.7542 6.54977 11.4941 6.22957 11.1668C5.90937 10.8395 5.65778 10.4515 5.48956 10.0256C5.32134 9.59973 5.23988 9.14454 5.24996 8.68675C5.26975 7.78818 5.6406 6.93307 6.2831 6.30456C6.9256 5.67605 7.78867 5.32412 8.68746 5.32412C9.58625 5.32412 10.4493 5.67605 11.0918 6.30456C11.7343 6.93307 12.1052 7.78818 12.125 8.68675Z" fill="white"/>
</svg>
